<svg xmlns="http://www.w3.org/2000/svg" width="178" height="55" fill="none"><path fill="#fff" fill-rule="evenodd" d="M155.748.035s-17.37.167-30.722 4.72c-6.279 2.13-10.004 3.926-12.39 5.763-5.609 4.302-5.358 10.86-3.809 17.124 2.344 9.523 8.706 19.213 18.04 23.223 3.516 1.503 8.079 2.505 14.399 2.547 10.213.042 18.04-1.963 23.649-5.93 6.236-4.386 9.083-10.985 11.008-18.043 2.26-8.228 3.474-18.795-.628-23.765C169.938-.8 155.748.035 155.748.035Z" clip-rule="evenodd"/><path fill="#27348B" fill-rule="evenodd" d="M153.32 2.625s-17.035.167-30.136 4.636c-6.153 2.088-9.837 3.842-12.181 5.638-5.525 4.219-5.274 10.65-3.767 16.79 2.302 9.356 8.539 18.837 17.706 22.804 3.474 1.462 7.952 2.465 14.105 2.506 10.046.042 17.706-1.92 23.189-5.805 6.111-4.302 8.915-10.776 10.799-17.709 2.218-8.06 3.432-18.419-.628-23.305-5.149-6.349-19.087-5.555-19.087-5.555Z" clip-rule="evenodd"/><path fill="#fff" d="M17.538 24.134v15.537h-6.153V14.904h5.441l13.31 14.743V14.904h6.153V39.67h-4.855L17.538 24.134Zm29.634 15.579V19.54h-8.204v-4.594h22.938v4.594h-8.204v20.173h-6.53Zm17.413 0V14.946H81.16v4.552H70.78v5.054h9.92v4.594h-9.92v5.89h10.673v4.635H64.585v.042Zm30.178-14.618c1.13 0 2.01-.25 2.553-.71.544-.46.837-1.211.837-2.172 0-.919-.293-1.629-.879-2.13-.585-.501-1.423-.752-2.51-.752H91.79v5.764h2.972Zm-9.166 14.618V14.946h9.166c3.39 0 5.86.584 7.451 1.754 1.59 1.17 2.427 2.965 2.427 5.43 0 1.378-.377 2.547-1.046 3.508-.712.96-1.8 1.796-3.265 2.464.628.209 1.172.585 1.674 1.128.503.543.921 1.17 1.298 2.004l3.934 8.479h-6.99l-3.139-7.142c-.502-1.128-1.088-1.921-1.758-2.339-.628-.418-1.59-.626-2.763-.626h-.753V39.67h-6.236v.042Zm23.565 0V14.946h5.483l7.953 9.982 7.994-9.982h5.483v24.767h-6.111V24.385l-7.366 9.063-7.325-9.063v15.328h-6.111Zm31.936 0V14.946h6.404v24.767h-6.404Zm20.761-14.618c1.13 0 2.009-.25 2.553-.71.544-.46.837-1.211.837-2.172 0-.919-.293-1.629-.879-2.13-.586-.501-1.423-.752-2.511-.752h-2.972v5.764h2.972Zm-9.208 14.618V14.946h9.166c3.391 0 5.86.584 7.451 1.754 1.59 1.17 2.427 2.965 2.427 5.43 0 1.378-.376 2.547-1.046 3.508-.712.96-1.8 1.796-3.265 2.464.628.209 1.172.585 1.674 1.128.503.543.921 1.17 1.298 2.004l3.934 8.479h-6.99l-3.139-7.142c-.502-1.128-1.088-1.921-1.758-2.339-.628-.418-1.59-.626-2.762-.626h-.754V39.67h-6.236v.042Z"/><path fill="#fff" fill-rule="evenodd" d="M6.404 39.713H0V4.504h6.404v35.209ZM0 42.428h174.291V44.6H0v-2.172Z" clip-rule="evenodd"/></svg>