<svg xmlns="http://www.w3.org/2000/svg" width="40" height="41" fill="none"><path fill="#fff" fill-rule="evenodd" d="M20 40.5c-11.046 0-20-8.954-20-20S8.954.5 20 .5s20 8.954 20 20-8.954 20-20 20Zm.865-24.99c-1.791.744-5.371 2.286-10.74 4.625-.872.347-1.329.686-1.37 1.018-.07.56.631.781 1.587 1.082.13.04.265.083.403.128.94.305 2.205.663 2.863.677.596.013 1.262-.233 1.997-.738 5.016-3.386 7.605-5.097 7.768-5.134.115-.026.273-.059.381.037.108.096.097.277.086.326-.07.296-2.825 2.857-4.25 4.183-.445.413-.76.706-.825.773-.144.15-.291.292-.433.428-.873.842-1.528 1.474.037 2.505.752.496 1.354.905 1.954 1.314.656.447 1.31.892 2.156 1.447.215.141.421.288.622.43.763.545 1.448 1.033 2.295.956.492-.046 1-.509 1.259-1.889.61-3.261 1.809-10.328 2.086-13.24a3.249 3.249 0 0 0-.03-.725c-.025-.143-.076-.347-.263-.499-.22-.179-.561-.216-.713-.214-.693.012-1.756.382-6.87 2.51Z" clip-rule="evenodd"/></svg>