<svg xmlns="http://www.w3.org/2000/svg" width="40" height="41" fill="none"><path fill="#fff" fill-rule="evenodd" d="M15.75 27.625c1.25.75 2.75 1.125 4.25 1.125 4.625 0 8.25-3.75 8.25-8.125 0-2.25-.75-4.25-2.375-5.875-1.625-1.5-3.625-2.375-5.875-2.375-4.5 0-8.25 3.75-8.25 8.25 0 1.5.375 3 1.25 4.375l.25.375-.875 3L15.5 27.5l.25.125Zm7-5.875c.25 0 1.5.625 1.75.75.039.02.078.036.116.052.209.088.404.17.509.698.125 0 .125.5-.125 1.125-.125.5-1.125 1.125-1.625 1.125-.085 0-.166.007-.253.015-.424.037-.982.087-2.747-.64-2.19-.876-3.71-3-4.136-3.596-.06-.085-.099-.139-.114-.154a2.915 2.915 0 0 0-.121-.2c-.277-.437-.879-1.388-.879-2.425 0-1.25.625-1.875.875-2.125s.5-.25.625-.25h.5c.125 0 .375 0 .5.375.25.5.75 1.75.75 1.875 0 .042.014.083.028.125.028.083.055.167-.028.25-.063.063-.094.125-.125.188a.653.653 0 0 1-.125.187l-.375.375c-.125.125-.25.25-.125.5s.625 1.125 1.375 1.75c.844.738 1.51 1.032 1.847 1.18.063.028.114.05.153.07.25 0 .375 0 .5-.125.063-.125.219-.313.375-.5.156-.188.313-.375.375-.5.125-.25.25-.25.5-.125Z" clip-rule="evenodd"/><path fill="#fff" fill-rule="evenodd" d="M0 20.5C0 9.454 8.954.5 20 .5s20 8.954 20 20-8.954 20-20 20-20-8.954-20-20Zm20-10c2.625 0 5.125 1 7 2.875s3 4.375 3 7c0 5.5-4.5 10-10 10-1.625 0-3.25-.5-4.75-1.25L10 30.5l1.375-5C10.5 24 10 22.25 10 20.5c0-5.5 4.5-10 10-10Z" clip-rule="evenodd"/></svg>